<svg xmlns="http://www.w3.org/2000/svg" xmlns:xlink="http://www.w3.org/1999/xlink" width="500" zoomAndPan="magnify" viewBox="0 0 375 374.999991" height="500" preserveAspectRatio="xMidYMid meet" version="1.0"><defs><clipPath id="343dc28ad3"><path d="M 43.75 43.75 L 331.25 43.75 L 331.25 331.25 L 43.75 331.25 Z M 43.75 43.75 " clip-rule="nonzero"/></clipPath><clipPath id="8be77ae2ff"><path d="M 73.992188 43.75 L 301.007812 43.75 C 309.027344 43.75 316.71875 46.9375 322.390625 52.609375 C 328.0625 58.28125 331.25 65.972656 331.25 73.992188 L 331.25 301.007812 C 331.25 317.710938 317.710938 331.25 301.007812 331.25 L 73.992188 331.25 C 65.972656 331.25 58.28125 328.0625 52.609375 322.390625 C 46.9375 316.71875 43.75 309.027344 43.75 301.007812 L 43.75 73.992188 C 43.75 65.972656 46.9375 58.28125 52.609375 52.609375 C 58.28125 46.9375 65.972656 43.75 73.992188 43.75 Z M 73.992188 43.75 " clip-rule="nonzero"/></clipPath><clipPath id="4fd760b7c0"><path d="M 0.75 0.75 L 288.25 0.75 L 288.25 288.25 L 0.75 288.25 Z M 0.75 0.75 " clip-rule="nonzero"/></clipPath><clipPath id="bdddca0abe"><path d="M 30.992188 0.75 L 258.007812 0.75 C 266.027344 0.75 273.71875 3.9375 279.390625 9.609375 C 285.0625 15.28125 288.25 22.972656 288.25 30.992188 L 288.25 258.007812 C 288.25 274.710938 274.710938 288.25 258.007812 288.25 L 30.992188 288.25 C 22.972656 288.25 15.28125 285.0625 9.609375 279.390625 C 3.9375 273.71875 0.75 266.027344 0.75 258.007812 L 0.75 30.992188 C 0.75 22.972656 3.9375 15.28125 9.609375 9.609375 C 15.28125 3.9375 22.972656 0.75 30.992188 0.75 Z M 30.992188 0.75 " clip-rule="nonzero"/></clipPath><clipPath id="8909d250eb"><rect x="0" width="289" y="0" height="289"/></clipPath><clipPath id="c29e9c05ce"><path d="M 0.046875 132 L 209 132 L 209 235.847656 L 0.046875 235.847656 Z M 0.046875 132 " clip-rule="nonzero"/></clipPath><clipPath id="aa710bf386"><path d="M 30.285156 0.902344 L 178.714844 0.902344 L 178.714844 149.332031 L 30.285156 149.332031 Z M 30.285156 0.902344 " clip-rule="nonzero"/></clipPath><clipPath id="1058a53b50"><path d="M 104.5 0.902344 C 63.511719 0.902344 30.285156 34.128906 30.285156 75.117188 C 30.285156 116.105469 63.511719 149.332031 104.5 149.332031 C 145.488281 149.332031 178.714844 116.105469 178.714844 75.117188 C 178.714844 34.128906 145.488281 0.902344 104.5 0.902344 Z M 104.5 0.902344 " clip-rule="nonzero"/></clipPath><clipPath id="2bce5f60fe"><path d="M 0.285156 0.902344 L 148.714844 0.902344 L 148.714844 149.332031 L 0.285156 149.332031 Z M 0.285156 0.902344 " clip-rule="nonzero"/></clipPath><clipPath id="2fbf102c74"><path d="M 74.5 0.902344 C 33.511719 0.902344 0.285156 34.128906 0.285156 75.117188 C 0.285156 116.105469 33.511719 149.332031 74.5 149.332031 C 115.488281 149.332031 148.714844 116.105469 148.714844 75.117188 C 148.714844 34.128906 115.488281 0.902344 74.5 0.902344 Z M 74.5 0.902344 " clip-rule="nonzero"/></clipPath><clipPath id="710e819018"><rect x="0" width="149" y="0" height="150"/></clipPath><clipPath id="8cc6b38d1b"><rect x="0" width="210" y="0" height="237"/></clipPath></defs><rect x="-37.5" width="450" fill="#ffffff" y="-37.499999" height="449.999989" fill-opacity="1"/><rect x="-37.5" width="450" fill="#ffffff" y="-37.499999" height="449.999989" fill-opacity="1"/><g clip-path="url(#343dc28ad3)"><g clip-path="url(#8be77ae2ff)"><g transform="matrix(1, 0, 0, 1, 43, 43)"><g clip-path="url(#8909d250eb)"><g clip-path="url(#4fd760b7c0)"><g clip-path="url(#bdddca0abe)"><path fill="#20c997" d="M 0.75 0.75 L 288.25 0.75 L 288.25 288.25 L 0.75 288.25 Z M 0.75 0.75 " fill-opacity="1" fill-rule="nonzero"/></g></g></g></g></g></g><g transform="matrix(1, 0, 0, 1, 83, 69)"><g clip-path="url(#8cc6b38d1b)"><path fill="#fff7f0" d="M 103.519531 134.316406 C 103.832031 134.628906 104.34375 134.628906 104.65625 134.316406 L 159.914062 79 C 168.957031 68.234375 170.042969 53.226562 162.640625 41.375 C 151.167969 23.011719 124.753906 23.289062 108.8125 38.289062 L 104.089844 42.734375 L 99.367188 38.289062 C 83.425781 23.289062 57.007812 23.011719 45.539062 41.375 C 38.132812 53.226562 39.21875 68.234375 48.265625 79 Z M 103.519531 134.316406 " fill-opacity="1" fill-rule="nonzero"/><path fill="#fff7f0" d="M 132.371094 176.257812 C 132.410156 175.996094 132.410156 175.769531 132.410156 175.542969 C 132.410156 171.171875 130.613281 167.179688 127.695312 164.316406 C 138.921875 156.855469 152.246094 147.285156 161.34375 138.355469 C 163.738281 136.019531 166.84375 134.890625 169.988281 134.890625 C 173.058594 134.890625 176.125 135.984375 178.558594 138.132812 C 178.671875 138.242188 178.746094 138.355469 178.859375 138.46875 C 164.148438 151.621094 143.714844 167.554688 132.371094 176.257812 Z M 132.371094 176.257812 " fill-opacity="1" fill-rule="nonzero"/><g clip-path="url(#c29e9c05ce)"><path fill="#fff7f0" d="M 208.875 142.839844 C 209.027344 145.816406 208.015625 148.640625 205.992188 150.828125 L 201.203125 156.066406 C 186.082031 172.753906 163.214844 197.921875 136.488281 216.046875 C 131.660156 219.324219 125.898438 220.945312 120.058594 220.867188 C 108.980469 220.640625 87.53125 219.964844 68.519531 217.816406 C 57.851562 216.609375 46.773438 219.023438 37.417969 224.597656 L 18.140625 236.089844 L 0.101562 193.328125 L 18.738281 183.832031 C 21.660156 182.363281 24.390625 180.367188 26.898438 177.839844 C 32.699219 172.039062 48.683594 159.003906 71.625 163.828125 C 76.679688 164.882812 81.246094 165.371094 85.550781 165.371094 L 116.578125 165.371094 C 122.230469 165.371094 126.796875 169.929688 126.796875 175.542969 C 126.796875 178.371094 125.636719 180.929688 123.765625 182.777344 C 123.726562 182.816406 123.652344 182.890625 123.578125 182.964844 C 121.78125 184.660156 119.308594 185.753906 116.578125 185.753906 L 80.945312 185.753906 C 79.410156 185.753906 78.136719 186.996094 78.136719 188.578125 C 78.136719 190.125 79.410156 191.40625 80.945312 191.40625 L 116.578125 191.40625 C 120.808594 191.40625 124.625 189.746094 127.433594 187.035156 C 130.238281 184.960938 171.109375 154.332031 190.425781 135.457031 C 194.429688 131.539062 200.902344 131.425781 205.171875 135.230469 C 207.417969 137.1875 208.726562 139.902344 208.875 142.839844 Z M 208.875 142.839844 " fill-opacity="1" fill-rule="nonzero"/></g><g clip-path="url(#aa710bf386)"><g clip-path="url(#1058a53b50)"><g transform="matrix(1, 0, 0, 1, 30, 0)"><g clip-path="url(#710e819018)"><g clip-path="url(#2bce5f60fe)"><g clip-path="url(#2fbf102c74)"><path fill="#fff7f0" d="M 0.285156 0.902344 L 148.714844 0.902344 L 148.714844 149.332031 L 0.285156 149.332031 Z M 0.285156 0.902344 " fill-opacity="1" fill-rule="nonzero"/></g></g></g></g></g></g><path fill="#20c997" d="M 91.660156 46.207031 C 89.511719 46.21875 87.59375 47.589844 86.894531 49.625 L 77.183594 77.988281 C 74.992188 84.34375 84.53125 87.636719 86.710938 81.277344 L 91.246094 68.042969 L 91.246094 121.992188 C 91.246094 129.867188 103.058594 129.867188 103.058594 121.992188 L 103.058594 90.648438 L 105.910156 90.648438 L 105.910156 121.992188 C 105.910156 129.867188 117.726562 129.867188 117.726562 121.992188 L 117.726562 68.042969 L 122.253906 81.28125 C 124.441406 87.636719 133.96875 84.34375 131.78125 77.992188 L 122.0625 49.625 C 121.371094 47.589844 119.453125 46.21875 117.292969 46.207031 L 112.265625 46.207031 C 108.429688 48.378906 103.671875 48.808594 99.320312 46.929688 C 98.824219 46.714844 98.347656 46.46875 97.890625 46.207031 Z M 91.660156 46.207031 " fill-opacity="1" fill-rule="nonzero"/><path fill="#20c997" d="M 115.757812 38.179688 C 113.207031 44.066406 106.375 46.773438 100.488281 44.234375 C 94.613281 41.703125 91.894531 34.863281 94.433594 28.992188 C 96.984375 23.097656 103.804688 20.390625 109.6875 22.933594 C 115.59375 25.46875 118.289062 32.292969 115.757812 38.179688 Z M 115.757812 38.179688 " fill-opacity="1" fill-rule="evenodd"/></g></g></svg>