<svg xmlns="http://www.w3.org/2000/svg" xmlns:xlink="http://www.w3.org/1999/xlink" width="500" zoomAndPan="magnify" viewBox="0 0 375 374.999991" height="500" preserveAspectRatio="xMidYMid meet" version="1.0"><defs><clipPath id="32f5787103"><path d="M 56.351562 202 L 318.851562 202 L 318.851562 332.492188 L 56.351562 332.492188 Z M 56.351562 202 " clip-rule="nonzero"/></clipPath><clipPath id="ba9acfb308"><path d="M 94.320312 37.5 L 280.679688 37.5 L 280.679688 223.863281 L 94.320312 223.863281 Z M 94.320312 37.5 " clip-rule="nonzero"/></clipPath><clipPath id="b6cad6eade"><path d="M 187.5 37.5 C 136.039062 37.5 94.320312 79.21875 94.320312 130.679688 C 94.320312 182.144531 136.039062 223.863281 187.5 223.863281 C 238.960938 223.863281 280.679688 182.144531 280.679688 130.679688 C 280.679688 79.21875 238.960938 37.5 187.5 37.5 Z M 187.5 37.5 " clip-rule="nonzero"/></clipPath><clipPath id="1be6817e82"><path d="M 0.320312 0.5 L 186.679688 0.5 L 186.679688 186.863281 L 0.320312 186.863281 Z M 0.320312 0.5 " clip-rule="nonzero"/></clipPath><clipPath id="ab54300d62"><path d="M 93.5 0.5 C 42.039062 0.5 0.320312 42.21875 0.320312 93.679688 C 0.320312 145.144531 42.039062 186.863281 93.5 186.863281 C 144.960938 186.863281 186.679688 145.144531 186.679688 93.679688 C 186.679688 42.21875 144.960938 0.5 93.5 0.5 Z M 93.5 0.5 " clip-rule="nonzero"/></clipPath><clipPath id="66bb5c254a"><rect x="0" width="187" y="0" height="187"/></clipPath></defs><rect x="-37.5" width="450" fill="#ffffff" y="-37.499999" height="449.999989" fill-opacity="1"/><rect x="-37.5" width="450" fill="#20c997" y="-37.499999" height="449.999989" fill-opacity="1"/><path fill="#fff7f0" d="M 186.269531 205.011719 C 186.664062 205.402344 187.304688 205.402344 187.695312 205.011719 L 257.078125 135.554688 C 268.429688 122.042969 269.796875 103.195312 260.5 88.3125 C 246.097656 65.257812 212.929688 65.609375 192.914062 84.441406 L 186.984375 90.019531 L 181.054688 84.441406 C 161.039062 65.609375 127.871094 65.257812 113.46875 88.3125 C 104.167969 103.195312 105.535156 122.042969 116.890625 135.554688 Z M 186.269531 205.011719 " fill-opacity="1" fill-rule="nonzero"/><path fill="#fff7f0" d="M 222.496094 257.675781 C 222.542969 257.34375 222.542969 257.058594 222.542969 256.777344 C 222.542969 251.289062 220.289062 246.273438 216.621094 242.679688 C 230.71875 233.3125 247.449219 221.296875 258.871094 210.085938 C 261.878906 207.152344 265.777344 205.734375 269.726562 205.734375 C 273.578125 205.734375 277.433594 207.105469 280.488281 209.800781 C 280.628906 209.941406 280.722656 210.085938 280.863281 210.226562 C 262.394531 226.738281 236.734375 246.746094 222.496094 257.675781 Z M 222.496094 257.675781 " fill-opacity="1" fill-rule="nonzero"/><g clip-path="url(#32f5787103)"><path fill="#fff7f0" d="M 318.554688 215.714844 C 318.742188 219.449219 317.472656 223 314.933594 225.742188 L 308.917969 232.320312 C 289.933594 253.273438 261.21875 284.875 227.664062 307.628906 C 221.601562 311.746094 214.367188 313.78125 207.035156 313.683594 C 193.125 313.402344 166.195312 312.550781 142.324219 309.851562 C 128.929688 308.339844 115.019531 311.367188 103.269531 318.367188 L 79.066406 332.796875 L 56.417969 279.105469 L 79.820312 267.183594 C 83.484375 265.339844 86.917969 262.832031 90.066406 259.660156 C 97.347656 252.375 117.414062 236.007812 146.222656 242.0625 C 152.566406 243.386719 158.300781 244.003906 163.707031 244.003906 L 202.664062 244.003906 C 209.761719 244.003906 215.492188 249.726562 215.492188 256.777344 C 215.492188 260.324219 214.039062 263.539062 211.6875 265.859375 C 211.640625 265.90625 211.546875 266 211.453125 266.09375 C 209.195312 268.222656 206.09375 269.597656 202.664062 269.597656 L 157.925781 269.597656 C 156 269.597656 154.402344 271.15625 154.402344 273.144531 C 154.402344 275.082031 156 276.691406 157.925781 276.691406 L 202.664062 276.691406 C 207.976562 276.691406 212.769531 274.609375 216.292969 271.203125 C 219.816406 268.601562 271.136719 230.140625 295.386719 206.441406 C 300.414062 201.523438 308.542969 201.378906 313.902344 206.15625 C 316.722656 208.617188 318.367188 212.023438 318.554688 215.714844 Z M 318.554688 215.714844 " fill-opacity="1" fill-rule="nonzero"/></g><g clip-path="url(#ba9acfb308)"><g clip-path="url(#b6cad6eade)"><g transform="matrix(1, 0, 0, 1, 94, 37)"><g clip-path="url(#66bb5c254a)"><g clip-path="url(#1be6817e82)"><g clip-path="url(#ab54300d62)"><path fill="#fff7f0" d="M 0.320312 0.5 L 186.679688 0.5 L 186.679688 186.863281 L 0.320312 186.863281 Z M 0.320312 0.5 " fill-opacity="1" fill-rule="nonzero"/></g></g></g></g></g></g><path fill="#20c997" d="M 171.378906 94.382812 C 168.679688 94.394531 166.273438 96.117188 165.394531 98.671875 L 153.203125 134.285156 C 150.453125 142.265625 162.425781 146.398438 165.164062 138.417969 L 170.855469 121.800781 L 170.855469 189.539062 C 170.855469 199.425781 185.691406 199.425781 185.691406 189.539062 L 185.691406 150.183594 L 189.273438 150.183594 L 189.273438 189.539062 C 189.273438 199.425781 204.105469 199.425781 204.105469 189.539062 L 204.105469 121.800781 L 209.789062 138.421875 C 212.539062 146.398438 224.503906 142.265625 221.753906 134.289062 L 209.550781 98.671875 C 208.6875 96.117188 206.277344 94.394531 203.5625 94.382812 L 197.25 94.382812 C 192.433594 97.109375 186.460938 97.648438 180.996094 95.289062 C 180.375 95.015625 179.777344 94.710938 179.203125 94.382812 Z M 171.378906 94.382812 " fill-opacity="1" fill-rule="nonzero"/><path fill="#20c997" d="M 201.632812 84.304688 C 198.433594 91.695312 189.855469 95.09375 182.460938 91.90625 C 175.085938 88.726562 171.671875 80.136719 174.863281 72.769531 C 178.0625 65.363281 186.628906 61.96875 194.011719 65.160156 C 201.425781 68.34375 204.8125 76.910156 201.632812 84.304688 Z M 201.632812 84.304688 " fill-opacity="1" fill-rule="evenodd"/></svg>